<?xml version="1.0" encoding="UTF-8"?>
<svg version="1.1" xmlns="http://www.w3.org/2000/svg" width="1024" height="1024">
<path d="M0 0 C60.72 0 121.44 0 184 0 C189.445 1.98 189.445 1.98 195 4 C198.96 7.465 198.96 7.465 203 11 C204.65 14.3 206.3 17.6 208 21 C208.33 22.65 208.66 24.3 209 26 C209 45.47 209 64.94 209 85 C220.88 85 232.76 85 245 85 C248.3 85.99 251.6 86.98 255 88 C258.3 90.97 261.6 93.94 265 97 C266.98 100.96 266.98 100.96 269 105 C269.33 105.99 269.66 106.98 270 108 C270 121.86 270 135.72 270 150 C280.89 150 291.78 150 303 150 C306.3 151.65 309.6 153.3 313 155 C316.96 159.455 316.96 159.455 321 164 C321.99 166.31 322.98 168.62 324 171 C324.33 172.65 324.66 174.3 325 176 C325 201.41 325 226.82 325 253 C324.67 254.65 324.34 256.3 324 258 C313.11 259.98 313.11 259.98 302 262 C296.72 263.65 291.44 265.3 286 267 C285.01 266.67 284.02 266.34 283 266 C283.33 240.26 283.66 214.52 284 188 C155.96 188 27.92 188 -104 188 C-104 227.6 -104 267.2 -104 308 C7.21 308 118.42 308 233 308 C231.02 310.64 229.04 313.28 227 316 C222.05 323.425 222.05 323.425 217 331 C214.69 335.62 212.38 340.24 210 345 C191.19 345 172.38 345 153 345 C153 350.61 153 356.22 153 362 C151.68 365.3 150.36 368.6 149 372 C146.36 374.64 143.72 377.28 141 380 C138.03 381.32 135.06 382.64 132 384 C130.35 384.33 128.7 384.66 127 385 C122.05 385 117.1 385 112 385 C111.34 384.67 110.68 384.34 110 384 C110.33 392.25 110.66 400.5 111 409 C111.99 412.63 112.98 416.26 114 420 C115.98 423.3 117.96 426.6 120 430 C122.31 432.31 124.62 434.62 127 437 C129.97 438.65 132.94 440.3 136 442 C139.3 442.66 142.6 443.32 146 444 C164.15 444.33 182.3 444.66 201 445 C202.65 450.61 204.3 456.22 206 462 C208.64 467.28 211.28 472.56 214 478 C215.98 481.465 215.98 481.465 218 485 C192.59 485 167.18 485 141 485 C136.71 484.34 132.42 483.68 128 483 C123.05 481.35 118.1 479.7 113 478 C109.37 476.02 105.74 474.04 102 472 C98.7 469.36 95.4 466.72 92 464 C88.7 460.37 85.4 456.74 82 453 C80.02 449.7 78.04 446.4 76 443 C73.525 436.565 73.525 436.565 71 430 C70.01 425.05 70.01 425.05 69 420 C69 408.12 69 396.24 69 384 C68.34 384.33 67.68 384.66 67 385 C62.71 385 58.42 385 54 385 C48.06 383.515 48.06 383.515 42 382 C39.69 380.35 37.38 378.7 35 377 C33.02 374.03 31.04 371.06 29 368 C28.01 364.535 28.01 364.535 27 361 C27 355.72 27 350.44 27 345 C-20.52 345 -68.04 345 -117 345 C-121.455 343.515 -121.455 343.515 -126 342 C-128.97 340.02 -131.94 338.04 -135 336 C-136.98 333.36 -138.96 330.72 -141 328 C-141.99 325.36 -142.98 322.72 -144 320 C-144 272.15 -144 224.3 -144 175 C-142.02 169.555 -142.02 169.555 -140 164 C-137.69 161.36 -135.38 158.72 -133 156 C-129.7 154.35 -126.4 152.7 -123 151 C-122.01 150.67 -121.02 150.34 -120 150 C-109.44 150 -98.88 150 -88 150 C-88.33 138.12 -88.66 126.24 -89 114 C-88.34 111.36 -87.68 108.72 -87 106 C-85.35 102.7 -83.7 99.4 -82 96 C-79.36 93.69 -76.72 91.38 -74 89 C-71.69 88.01 -69.38 87.02 -67 86 C-63.535 85.505 -63.535 85.505 -60 85 C-48.45 85 -36.9 85 -25 85 C-25 64.21 -25 43.42 -25 22 C-23.35 18.7 -21.7 15.4 -20 12 C-18.68 10.35 -17.36 8.7 -16 7 C-13.36 5.35 -10.72 3.7 -8 2 C-5.36 1.34 -2.72 0.68 0 0 Z M39 38 C39 53.51 39 69.02 39 85 C39.33 85.33 39.66 85.66 40 86 C50.56 86 61.12 86 72 86 C72 70.16 72 54.32 72 38 C61.11 38 50.22 38 39 38 Z M109 38 C109 53.51 109 69.02 109 85 C120.88 85.33 132.76 85.66 145 86 C145.33 73.13 145.66 60.26 146 47 C145.505 42.545 145.505 42.545 145 38 C133.12 38 121.24 38 109 38 Z M-49 122 C-48.67 131.24 -48.34 140.48 -48 150 C43.74 150 135.48 150 230 150 C230.33 149.34 230.66 148.68 231 148 C231 139.42 231 130.84 231 122 C138.6 122 46.2 122 -49 122 Z " fill="#000000" transform="translate(334,196)"/>
<path d="M0 0 C2.31 0 4.62 0 7 0 C9.64 1.32 12.28 2.64 15 4 C16.65 6.64 18.3 9.28 20 12 C20 15.3 20 18.6 20 22 C19.01 23.98 18.02 25.96 17 28 C15.35 29.32 13.7 30.64 12 32 C10.35 32.66 8.7 33.32 7 34 C4.69 34 2.38 34 0 34 C-2.64 32.68 -5.28 31.36 -8 30 C-9.32 28.35 -10.64 26.7 -12 25 C-12.33 24.01 -12.66 23.02 -13 22 C-13 18.7 -13 15.4 -13 12 C-11.35 9.36 -9.7 6.72 -8 4 C-5.36 2.68 -2.72 1.36 0 0 Z " fill="#000000" transform="translate(339,401)"/>
<path d="M0 0 C2.97 0.33 5.94 0.66 9 1 C11.97 2.98 11.97 2.98 15 5 C16.32 7.31 17.64 9.62 19 12 C19 15.63 19 19.26 19 23 C17.02 25.97 17.02 25.97 15 29 C13.02 30.32 11.04 31.64 9 33 C7.515 33.495 7.515 33.495 6 34 C3.36 34 0.72 34 -2 34 C-5.465 32.02 -5.465 32.02 -9 30 C-10.32 28.35 -11.64 26.7 -13 25 C-13.33 24.01 -13.66 23.02 -14 22 C-14 19.03 -14 16.06 -14 13 C-12.68 10.36 -11.36 7.72 -10 5 C-8.02 3.68 -6.04 2.36 -4 1 C-2.68 0.67 -1.36 0.34 0 0 Z " fill="#000000" transform="translate(394,401)"/>
<path d="M0 0 C2.97 0.33 5.94 0.66 9 1 C11.97 2.98 11.97 2.98 15 5 C16.32 7.31 17.64 9.62 19 12 C19.495 15.96 19.495 15.96 20 20 C19.01 22.31 18.02 24.62 17 27 C15.02 28.65 13.04 30.3 11 32 C9.02 32.66 7.04 33.32 5 34 C2.03 33.67 -0.94 33.34 -4 33 C-6.31 31.02 -8.62 29.04 -11 27 C-11.99 24.36 -12.98 21.72 -14 19 C-13.67 16.36 -13.34 13.72 -13 11 C-11.68 9.02 -10.36 7.04 -9 5 C-7.35 3.68 -5.7 2.36 -4 1 C-2.68 0.67 -1.36 0.34 0 0 Z " fill="#000000" transform="translate(449,401)"/>
<path d="M0 0 C2.31 0 4.62 0 7 0 C10.465 1.485 10.465 1.485 14 3 C15.65 4.65 17.3 6.3 19 8 C19.66 9.98 20.32 11.96 21 14 C21 16.31 21 18.62 21 21 C20.01 22.98 19.02 24.96 18 27 C16.02 28.65 14.04 30.3 12 32 C10.35 32.66 8.7 33.32 7 34 C4.69 34 2.38 34 0 34 C-2.64 32.68 -5.28 31.36 -8 30 C-9.32 28.02 -10.64 26.04 -12 24 C-12.33 20.7 -12.66 17.4 -13 14 C-11.68 11.36 -10.36 8.72 -9 6 C-7.02 4.35 -5.04 2.7 -3 1 C-2.01 0.67 -1.02 0.34 0 0 Z " fill="#000000" transform="translate(501,401)"/>
<path d="M0 0 C2.31 0 4.62 0 7 0 C11.455 1.98 11.455 1.98 16 4 C17.98 6.64 19.96 9.28 22 12 C22.66 13.98 23.32 15.96 24 18 C24 20.31 24 22.62 24 25 C22.02 29.455 22.02 29.455 20 34 C17.36 35.98 14.72 37.96 12 40 C9.69 40.66 7.38 41.32 5 42 C2.03 41.67 -0.94 41.34 -4 41 C-6.64 39.35 -9.28 37.7 -12 36 C-13.65 33.69 -15.3 31.38 -17 29 C-17.33 27.68 -17.66 26.36 -18 25 C-18 22.36 -18 19.72 -18 17 C-16.35 13.7 -14.7 10.4 -13 7 C-11.35 5.68 -9.7 4.36 -8 3 C-5.36 2.01 -2.72 1.02 0 0 Z " fill="#000000" transform="translate(278,419)"/>
<path d="M0 0 C3.3 0 6.6 0 10 0 C12.64 1.32 15.28 2.64 18 4 C19.98 6.64 21.96 9.28 24 12 C24.66 14.31 25.32 16.62 26 19 C25.67 21.64 25.34 24.28 25 27 C24.01 28.98 23.02 30.96 22 33 C19.69 34.98 17.38 36.96 15 39 C12.36 39.99 9.72 40.98 7 42 C4.03 41.67 1.06 41.34 -2 41 C-5.465 39.02 -5.465 39.02 -9 37 C-10.98 34.36 -12.96 31.72 -15 29 C-15.33 28.01 -15.66 27.02 -16 26 C-16 22.7 -16 19.4 -16 16 C-14.35 12.7 -12.7 9.4 -11 6 C-8.69 4.35 -6.38 2.7 -4 1 C-2.68 0.67 -1.36 0.34 0 0 Z " fill="#000000" transform="translate(564,419)"/>
<path d="M0 0 C2.97 0 5.94 0 9 0 C10.98 0.99 12.96 1.98 15 3 C16.65 4.98 18.3 6.96 20 9 C20.66 10.65 21.32 12.3 22 14 C21.67 17.3 21.34 20.6 21 24 C18.03 27.465 18.03 27.465 15 31 C11.535 32.485 11.535 32.485 8 34 C4.7 33.67 1.4 33.34 -2 33 C-4.31 31.02 -6.62 29.04 -9 27 C-9.99 25.02 -10.98 23.04 -12 21 C-12 18.36 -12 15.72 -12 13 C-11.01 11.02 -10.02 9.04 -9 7 C-6.69 5.02 -4.38 3.04 -2 1 C-1.34 0.67 -0.68 0.34 0 0 Z " fill="#000000" transform="translate(338,451)"/>
<path d="M0 0 C2.64 0 5.28 0 8 0 C9.98 0.99 11.96 1.98 14 3 C15.65 4.98 17.3 6.96 19 9 C19.66 10.98 20.32 12.96 21 15 C20.67 17.64 20.34 20.28 20 23 C18.02 25.97 18.02 25.97 16 29 C14.02 30.32 12.04 31.64 10 33 C5.545 33.495 5.545 33.495 1 34 C-2.465 32.515 -2.465 32.515 -6 31 C-7.65 29.35 -9.3 27.7 -11 26 C-11.66 24.35 -12.32 22.7 -13 21 C-13 18.36 -13 15.72 -13 13 C-11.68 10.36 -10.36 7.72 -9 5 C-7.02 3.68 -5.04 2.36 -3 1 C-2.01 0.67 -1.02 0.34 0 0 Z " fill="#000000" transform="translate(393,451)"/>
<path d="M0 0 C2.97 0 5.94 0 9 0 C12.465 1.98 12.465 1.98 16 4 C17.32 6.31 18.64 8.62 20 11 C20.495 11.99 20.495 11.99 21 13 C21 15.97 21 18.94 21 22 C19.68 24.31 18.36 26.62 17 29 C14.69 30.32 12.38 31.64 10 33 C7.36 33.33 4.72 33.66 2 34 C-0.64 33.01 -3.28 32.02 -6 31 C-7.32 29.35 -8.64 27.7 -10 26 C-10.66 24.35 -11.32 22.7 -12 21 C-12 18.36 -12 15.72 -12 13 C-10.68 10.36 -9.36 7.72 -8 5 C-6.35 3.68 -4.7 2.36 -3 1 C-2.01 0.67 -1.02 0.34 0 0 Z " fill="#000000" transform="translate(447,451)"/>
<path d="M0 0 C2.97 0 5.94 0 9 0 C10.98 0.99 12.96 1.98 15 3 C16.65 4.98 18.3 6.96 20 9 C20.66 12.3 21.32 15.6 22 19 C21.01 21.31 20.02 23.62 19 26 C17.35 27.65 15.7 29.3 14 31 C10.535 32.485 10.535 32.485 7 34 C4.03 33.67 1.06 33.34 -2 33 C-4.31 31.35 -6.62 29.7 -9 28 C-9.99 26.02 -10.98 24.04 -12 22 C-12 18.7 -12 15.4 -12 12 C-10.35 9.36 -8.7 6.72 -7 4 C-4.69 2.68 -2.38 1.36 0 0 Z " fill="#000000" transform="translate(500,451)"/>
<path d="M0 0 C7.59 0 15.18 0 23 0 C31.91 1.485 31.91 1.485 41 3 C46.94 4.98 52.88 6.96 59 9 C65.27 12.3 71.54 15.6 78 19 C82.29 22.3 86.58 25.6 91 29 C95.62 33.62 100.24 38.24 105 43 C108.3 47.62 111.6 52.24 115 57 C117.97 62.61 120.94 68.22 124 74 C126.475 80.93 126.475 80.93 129 88 C130.98 98.395 130.98 98.395 133 109 C133 116.26 133 123.52 133 131 C132.01 137.27 131.02 143.54 130 150 C128.02 155.94 126.04 161.88 124 168 C120.7 174.27 117.4 180.54 114 187 C110.7 191.29 107.4 195.58 104 200 C101.69 202.64 99.38 205.28 97 208 C93.7 210.64 90.4 213.28 87 216 C87.99 217.98 88.98 219.96 90 222 C92.64 222 95.28 222 98 222 C100.64 222.99 103.28 223.98 106 225 C108.31 226.98 110.62 228.96 113 231 C116.96 237.27 120.92 243.54 125 250 C128.3 254.95 131.6 259.9 135 265 C138.96 271.27 142.92 277.54 147 284 C148.98 288.95 148.98 288.95 151 294 C151.33 297.63 151.66 301.26 152 305 C151.01 308.96 150.02 312.92 149 317 C147.02 319.97 145.04 322.94 143 326 C138.545 329.96 138.545 329.96 134 334 C130.7 335.32 127.4 336.64 124 338 C122.35 338.33 120.7 338.66 119 339 C116.03 339 113.06 339 110 339 C105.05 337.515 105.05 337.515 100 336 C97.03 334.02 94.06 332.04 91 330 C88.36 326.7 85.72 323.4 83 320 C74.75 307.46 66.5 294.92 58 282 C55.36 277.71 52.72 273.42 50 269 C49.01 265.535 49.01 265.535 48 262 C48.33 258.37 48.66 254.74 49 251 C49.66 249.68 50.32 248.36 51 247 C50.67 245.35 50.34 243.7 50 242 C49.34 240.68 48.68 239.36 48 238 C44.7 238.66 41.4 239.32 38 240 C34.04 240.66 30.08 241.32 26 242 C19.07 242.33 12.14 242.66 5 243 C-0.94 242.34 -6.88 241.68 -13 241 C-18.28 239.68 -23.56 238.36 -29 237 C-32.96 235.35 -36.92 233.7 -41 232 C-46.61 229.03 -52.22 226.06 -58 223 C-61.3 220.36 -64.6 217.72 -68 215 C-71.3 212.03 -74.6 209.06 -78 206 C-78 205.34 -78 204.68 -78 204 C-78.66 204 -79.32 204 -80 204 C-84.29 198.39 -88.58 192.78 -93 187 C-97.95 177.595 -97.95 177.595 -103 168 C-104.65 163.05 -106.3 158.1 -108 153 C-108.99 148.05 -109.98 143.1 -111 138 C-111.33 132.06 -111.66 126.12 -112 120 C-111.34 113.07 -110.68 106.14 -110 99 C-108.02 92.07 -106.04 85.14 -104 78 C-99.545 68.595 -99.545 68.595 -95 59 C-91.7 54.38 -88.4 49.76 -85 45 C-81.04 40.71 -77.08 36.42 -73 32 C-68.71 28.7 -64.42 25.4 -60 22 C-56.7 20.02 -53.4 18.04 -50 16 C-44.72 13.36 -39.44 10.72 -34 8 C-28.72 6.35 -23.44 4.7 -18 3 C-12.06 2.01 -6.12 1.02 0 0 Z M-2 39 C-7.28 40.32 -12.56 41.64 -18 43 C-25.92 46.96 -25.92 46.96 -34 51 C-36.97 53.31 -39.94 55.62 -43 58 C-47.29 62.29 -51.58 66.58 -56 71 C-58.64 75.29 -61.28 79.58 -64 84 C-65.98 88.95 -67.96 93.9 -70 99 C-70.66 101.97 -71.32 104.94 -72 108 C-72.33 113.61 -72.66 119.22 -73 125 C-72.34 129.62 -71.68 134.24 -71 139 C-69.02 144.94 -67.04 150.88 -65 157 C-61.7 162.28 -58.4 167.56 -55 173 C-48.07 179.93 -48.07 179.93 -41 187 C-36.71 189.64 -32.42 192.28 -28 195 C-22.555 197.475 -22.555 197.475 -17 200 C-12.71 200.99 -8.42 201.98 -4 203 C-1.69 203.33 0.62 203.66 3 204 C8.28 204 13.56 204 19 204 C24.28 203.01 29.56 202.02 35 201 C39.95 199.02 44.9 197.04 50 195 C53.96 192.36 57.92 189.72 62 187 C65.3 184.03 68.6 181.06 72 178 C74.97 174.04 77.94 170.08 81 166 C83.64 160.72 86.28 155.44 89 150 C90.32 145.05 91.64 140.1 93 135 C93.33 132.69 93.66 130.38 94 128 C94 123.38 94 118.76 94 114 C93.01 108.72 92.02 103.44 91 98 C89.35 93.71 87.7 89.42 86 85 C84.02 81.7 82.04 78.4 80 75 C77.36 71.7 74.72 68.4 72 65 C66.555 60.05 66.555 60.05 61 55 C56.71 52.36 52.42 49.72 48 47 C44.37 45.35 40.74 43.7 37 42 C32.38 41.01 27.76 40.02 23 39 C14.75 39 6.5 39 -2 39 Z " fill="#000000" transform="translate(671,480)"/>
<path d="M0 0 C2.64 0 5.28 0 8 0 C10.475 1.485 10.475 1.485 13 3 C13.99 4.32 14.98 5.64 16 7 C16 8.98 16 10.96 16 13 C15.34 14.32 14.68 15.64 14 17 C9.545 20.465 9.545 20.465 5 24 C3.35 26.64 1.7 29.28 0 32 C-0.33 33.98 -0.66 35.96 -1 38 C-1.33 45.92 -1.66 53.84 -2 62 C-3.65 63.65 -5.3 65.3 -7 67 C-7.99 67.495 -7.99 67.495 -9 68 C-10.98 68 -12.96 68 -15 68 C-16.98 66.68 -18.96 65.36 -21 64 C-21.33 63.34 -21.66 62.68 -22 62 C-22 51.11 -22 40.22 -22 29 C-20.35 25.04 -18.7 21.08 -17 17 C-14.36 13.37 -11.72 9.74 -9 6 C-6.03 4.02 -3.06 2.04 0 0 Z " fill="#000000" transform="translate(648,558)"/>
</svg>
